DataType=double
version=3
OpenSimVersion=4.2
endheader
time	ground_force_r_vx	ground_force_r_vy	ground_force_r_vz	ground_force_r_px	ground_force_r_py	ground_force_r_pz	ground_force_l_vx	ground_force_l_vy	ground_force_l_vz	ground_force_l_px	ground_force_l_py	ground_force_l_pz	ground_torque_r_x	ground_torque_r_y	ground_torque_r_z	ground_torque_l_x	ground_torque_l_y	ground_torque_l_z
0.868	-5.676366614140465	4.733488641358692	0	0	0	0	0	0	0	0	0	0	0	0	-0.1407052354922135	0	0	0
0.8706854551911537	-28.63617779463868	28.51232673658691	0	0	0	0	0	0	0	0	0	0	0	0	-0.48503127753518	0	0	0
0.8733709103823073	-101.4388603577165	105.3909871549622	0	0	0	0	0	0	0	0	0	0	0	0	-1.259462773876661	0	0	0
0.876056365573461	-227.5715069976777	245.9374053583339	0	0	0	0	0	0	0	0	0	0	0	0	-2.102738631870277	0	0	0
0.8787418207646146	-402.390916010702	547.3581990309357	0	0	0	0	0	0	0	0	0	0	0	0	0.24953692234745	0	0	0
0.8814272759557683	-486.4250559767016	875.2275539230365	0	0	0	0	0	0	0	0	0	0	0	0	6.31075366481986	0	0	0
0.884112731146922	-499.700315193286	1107.360125856876	0	0	0	0	0	0	0	0	0	0	0	0	11.87148999607229	0	0	0
0.8867981863380756	-382.6106807504694	1295.783595326667	0	0	0	0	0	0	0	0	0	0	0	0	19.98183455267974	0	0	0
0.8894836415292293	-229.9377687785163	1459.003986143644	0	0	0	0	0	0	0	0	0	0	0	0	28.22025306543725	0	0	0
0.8921690967203829	-64.33500977687761	1588.402963566153	0	0	0	0	0	0	0	0	0	0	0	0	35.7806102724473	0	0	0
0.8948545519115366	9.510192473966331	1672.461202453107	0	0	0	0	0	0	0	0	0	0	0	0	39.41509188867424	0	0	0
0.8975400071026902	13.84757762214833	1712.417195932516	0	0	0	0	0	0	0	0	0	0	0	0	39.84552453617485	0	0	0
0.9002254622938439	-71.43609610112841	1714.800265176321	0	0	0	0	0	0	0	0	0	0	0	0	36.71129924467689	0	0	0
0.9029109174849976	-177.2630187583628	1684.728883929426	0	0	0	0	0	0	0	0	0	0	0	0	32.0894757767045	0	0	0
0.9055963726761512	-287.7041560951432	1645.201043021646	0	0	0	0	0	0	0	0	0	0	0	0	27.03151459613994	0	0	0
0.9082818278673049	-356.7976654770955	1604.18032817049	0	0	0	0	0	0	0	0	0	0	0	0	23.12938905752742	0	0	0
0.9109672830584585	-387.1029881820481	1566.785758960971	0	0	0	0	0	0	0	0	0	0	0	0	20.50374066324875	0	0	0
0.9136527382496122	-370.3393042545222	1546.012662445542	0	0	0	0	0	0	0	0	0	0	0	0	19.72744830725854	0	0	0
0.9163381934407659	-335.9328609549344	1544.375469714182	0	0	0	0	0	0	0	0	0	0	0	0	19.89477947919807	0	0	0
0.9190236486319195	-302.679379852823	1544.14118088477	0	0	0	0	0	0	0	0	0	0	0	0	20.10238124220859	0	0	0
0.9217091038230733	-275.1967625761221	1563.813048919088	0	0	0	0	0	0	0	0	0	0	0	0	21.03592575402477	0	0	0
0.9243945590142268	-236.79856994566	1588.429127812497	0	0	0	0	0	0	0	0	0	0	0	0	22.63925179652368	0	0	0
0.9270800142053806	-209.4535234032366	1612.038645556069	0	0	0	0	0	0	0	0	0	0	0	0	23.83392766464113	0	0	0
0.9297654693965343	-179.6757003423332	1637.099653191361	0	0	0	0	0	0	0	0	0	0	0	0	25.11186015434534	0	0	0
0.9324509245876879	-147.1956971968285	1656.781131929465	0	0	0	0	0	0	0	0	0	0	0	0	26.35695354967995	0	0	0
0.9351363797788416	-109.9353036009389	1672.466129557987	0	0	0	0	0	0	0	0	0	0	0	0	27.66308685791191	0	0	0
0.9378218349699952	-76.4370457770226	1681.284479228089	0	0	0	0	0	0	0	0	0	0	0	0	28.71051884535637	0	0	0
0.9405072901611489	-41.68964452925646	1685.262967800288	0	0	0	0	0	0	0	0	0	0	0	0	29.69662129780436	0	0	0
0.9431927453523026	-9.706872540548421	1682.02779878505	0	0	0	0	0	0	0	0	0	0	0	0	30.45497756594467	0	0	0
0.9458782005434562	24.02977201492244	1674.463249684753	0	0	0	0	0	0	0	0	0	0	0	0	31.18551478018544	0	0	0
0.9485636557346099	57.35427685045737	1661.151726362896	0	0	0	0	0	0	0	0	0	0	0	0	31.79688008496137	0	0	0
0.9512491109257635	92.31214648963147	1644.0537475098	0	0	0	0	0	0	0	0	0	0	0	0	32.39056274626987	0	0	0
0.9539345661169172	125.4557125391981	1621.738228281201	0	0	0	0	0	0	0	0	0	0	0	0	32.83117313039635	0	0	0
0.9566200213080709	159.3455349338308	1594.204175692326	0	0	0	0	0	0	0	0	0	0	0	0	33.20282233856363	0	0	0
0.9593054764992245	191.2820225569075	1558.834887572041	0	0	0	0	0	0	0	0	0	0	0	0	33.37664770261615	0	0	0
0.9619909316903782	222.9959103644222	1517.566289435269	0	0	0	0	0	0	0	0	0	0	0	0	33.44818576332799	0	0	0
0.9646763868815318	251.6248803759885	1470.165426419464	0	0	0	0	0	0	0	0	0	0	0	0	33.32483830705828	0	0	0
0.9673618420726855	278.6871888212389	1417.434174365057	0	0	0	0	0	0	0	0	0	0	0	0	33.07559894929961	0	0	0
0.9700472972638391	302.4754801797785	1357.763126948215	0	0	0	0	0	0	0	0	0	0	0	0	32.62221999153333	0	0	0
0.9727327524549928	324.8672955860625	1293.070984860592	0	0	0	0	0	0	0	0	0	0	0	0	32.06679126023876	0	0	0
0.9754182076461465	343.4436298499174	1224.414936373508	0	0	0	0	0	0	0	0	0	0	0	0	31.34946100816027	0	0	0
0.9781036628373001	360.0419023697619	1148.544194145529	0	0	0	0	0	0	0	0	0	0	0	0	30.48973332713102	0	0	0
0.9807891180284538	373.7527245046911	1060.765525352836	0	0	0	0	0	0	0	0	0	0	0	0	29.39678241279348	0	0	0
0.9834745732196074	385.4717695838074	970.4748131832969	0	0	0	0	0	0	0	0	0	0	0	0	28.25858823258947	0	0	0
0.9861600284107611	391.3362805389366	888.6405412810501	0	0	0	0	0	0	0	0	0	0	0	0	27.0932105382237	0	0	0
0.9888454836019148	388.3618538727018	797.2747390806231	0	0	0	0	0	0	0	0	0	0	0	0	25.52791852994688	0	0	0
0.9915309387930684	376.8065526473223	671.8895266505748	0	0	0	0	0	0	0	0	0	0	0	0	23.26471620296564	0	0	0
0.9942163939842221	372.1200005869124	560.7532252936572	0	0	0	0	0	0	0	0	0	0	0	0	21.56354477762431	0	0	0
0.9969018491753757	371.3567693266314	536.6260353357037	0	0	0	0	0	0	0	0	0	0	0	0	21.14938399787579	0	0	0
0.9995873043665294	279.8253255128667	464.0169728747719	0	0	0	0	0	0	0	0	0	0	0	0	16.50126588720696	0	0	0
1.002272759557683	63.14349368051595	142.0779719176246	0	0	0	0	0	0	0	0	0	0	0	0	4.072394764563192	0	0	0
1.004958214748837	0	0	0	0	0	0	0	0	0	0	0	0	0	0	0	0	0	0
1.00764366993999	0	0	0	0	0	0	0	0	0	0	0	0	0	0	0	0	0	0
1.010329125131144	0	0	0	0	0	0	0	0	0	0	0	0	0	0	0	0	0	0
1.013014580322298	0	0	0	0	0	0	0	0	0	0	0	0	0	0	0	0	0	0
1.015700035513451	0	0	0	0	0	0	0	0	0	0	0	0	0	0	0	0	0	0
1.018385490704605	0	0	0	0	0	0	0	0	0	0	0	0	0	0	0	0	0	0
1.021070945895759	0	0	0	0	0	0	0	0	0	0	0	0	0	0	0	0	0	0
1.023756401086912	0	0	0	0	0	0	0	0	0	0	0	0	0	0	0	0	0	0
1.026441856278066	0	0	0	0	0	0	0	0	0	0	0	0	0	0	0	0	0	0
1.02912731146922	0	0	0	0	0	0	0	0	0	0	0	0	0	0	0	0	0	0
1.031812766660373	0	0	0	0	0	0	0	0	0	0	0	0	0	0	0	0	0	0
1.034498221851527	0	0	0	0	0	0	0	0	0	0	0	0	0	0	0	0	0	0
1.037183677042681	0	0	0	0	0	0	0	0	0	0	0	0	0	0	0	0	0	0
1.039869132233834	0	0	0	0	0	0	0	0	0	0	0	0	0	0	0	0	0	0
1.042554587424988	0	0	0	0	0	0	0	0	0	0	0	0	0	0	0	0	0	0
1.045240042616142	0	0	0	0	0	0	0	0	0	0	0	0	0	0	0	0	0	0
1.047925497807295	0	0	0	0	0	0	0	0	0	0	0	0	0	0	0	0	0	0
1.050610952998449	0	0	0	0	0	0	0	0	0	0	0	0	0	0	0	0	0	0
1.053296408189603	0	0	0	0	0	0	0	0	0	0	0	0	0	0	0	0	0	0
1.055981863380756	0	0	0	0	0	0	0	0	0	0	0	0	0	0	0	0	0	0
1.05866731857191	0	0	0	0	0	0	0	0	0	0	0	0	0	0	0	0	0	0
1.061352773763064	0	0	0	0	0	0	0	0	0	0	0	0	0	0	0	0	0	0
1.064038228954217	0	0	0	0	0	0	0	0	0	0	0	0	0	0	0	0	0	0
1.066723684145371	0	0	0	0	0	0	0	0	0	0	0	0	0	0	0	0	0	0
1.069409139336525	0	0	0	0	0	0	0	0	0	0	0	0	0	0	0	0	0	0
1.072094594527678	0	0	0	0	0	0	0	0	0	0	0	0	0	0	0	0	0	0
1.074780049718832	0	0	0	0	0	0	0	0	0	0	0	0	0	0	0	0	0	0
1.077465504909985	0	0	0	0	0	0	0	0	0	0	0	0	0	0	0	0	0	0
1.080150960101139	0	0	0	0	0	0	0	0	0	0	0	0	0	0	0	0	0	0
1.082836415292293	0	0	0	0	0	0	0	0	0	0	0	0	0	0	0	0	0	0
1.085521870483447	0	0	0	0	0	0	0	0	0	0	0	0	0	0	0	0	0	0
1.0882073256746	0	0	0	0	0	0	0	0	0	0	0	0	0	0	0	0	0	0
1.090892780865754	0	0	0	0	0	0	0	0	0	0	0	0	0	0	0	0	0	0
1.093578236056908	0	0	0	0	0	0	0	0	0	0	0	0	0	0	0	0	0	0
1.096263691248061	0	0	0	0	0	0	0	0	0	0	0	0	0	0	0	0	0	0
1.098949146439215	0	0	0	0	0	0	0	0	0	0	0	0	0	0	0	0	0	0
1.101634601630369	0	0	0	0	0	0	0	0	0	0	0	0	0	0	0	0	0	0
1.104320056821522	0	0	0	0	0	0	0	0	0	0	0	0	0	0	0	0	0	0
1.107005512012676	0	0	0	0	0	0	0	0	0	0	0	0	0	0	0	0	0	0
1.10969096720383	0	0	0	0	0	0	0	0	0	0	0	0	0	0	0	0	0	0
1.112376422394983	0	0	0	0	0	0	-2.585462890829333e-11	8.783863948522982e-12	0	0	0	0	0	0	0	0	0	-1.37304201854177e-12
1.115061877586137	0	0	0	0	0	0	-6.679628342980891e-10	2.434081651255019e-10	0	0	0	0	0	0	0	0	0	-3.324872096187683e-11
1.11774733277729	0	0	0	0	0	0	-1.723380637142537e-08	6.723733998190183e-09	0	0	0	0	0	0	0	0	0	-7.994138599538391e-10
1.120432787968444	0	0	0	0	0	0	-4.52543329690294e-07	1.896365555719562e-07	0	0	0	0	0	0	0	0	0	-1.940336066608125e-08
1.123118243159598	0	0	0	0	0	0	-1.177632721807109e-05	5.337284392916158e-06	0	0	0	0	0	0	0	0	0	-4.620202398273061e-07
1.125803698350752	0	0	0	0	0	0	-0.0003040721229282058	0.0001488647007891076	0	0	0	0	0	0	0	0	0	-1.082105203402945e-05
1.128489153541905	0	0	0	0	0	0	-0.00793558973092443	0.004171543257004683	0	0	0	0	0	0	0	0	0	-0.0002552539465246145
1.131174608733059	0	0	0	0	0	0	-0.2098954790676932	0.1203756203852154	0	0	0	0	0	0	0	0	0	-0.006143036537569323
1.133860063924212	0	0	0	0	0	0	-6.258738942938885	4.085321747244018	0	0	0	0	0	0	0	0	0	-0.1716718175467175
1.136545519115366	0	0	0	0	0	0	-91.25714017780601	76.29255626324506	0	0	0	0	0	0	0	0	0	-1.989892742423541
1.13923097430652	0	0	0	0	0	0	-249.0725152623472	247.7845854482465	0	0	0	0	0	0	0	0	0	-3.526461862255183
1.141916429497674	0	0	0	0	0	0	-641.5157545086561	665.5268178685116	0	0	0	0	0	0	0	0	0	-6.048697675810815
1.144601884688827	0	0	0	0	0	0	-1494.225603184904	1609.084812677184	0	0	0	0	0	0	0	0	0	-9.572558587572825
1.147287339879981	0	0	0	0	0	0	-1930.381581167205	2464.018121640433	0	0	0	0	0	0	0	0	0	-0.5269335519884528
1.149972795071134	0	0	0	0	0	0	-1811.556124571279	2927.482091798573	0	0	0	0	0	0	0	0	0	16.20317198877376
1.152658250262288	0	0	0	0	0	0	-1612.463605339853	3112.277525902673	0	0	0	0	0	0	0	0	0	27.83705144636244
1.155343705453442	0	0	0	0	0	0	-1161.192887519307	3294.051365099783	0	0	0	0	0	0	0	0	0	45.40208648560386
1.158029160644595	0	0	0	0	0	0	-697.2238435177152	3484.650869824193	0	0	0	0	0	0	0	0	0	62.54989279037864
1.160714615835749	0	0	0	0	0	0	-244.065690015748	3644.760709627454	0	0	0	0	0	0	0	0	0	78.00863356565908
1.163400071026903	0	0	0	0	0	0	-24.04149752463744	3746.752197259301	0	0	0	0	0	0	0	0	0	85.39792251574649
1.166085526218057	0	0	0	0	0	0	27.92942403138544	3791.039190667108	0	0	0	0	0	0	0	0	0	86.67517954549909
1.16877098140921	0	0	0	0	0	0	-113.2152718865527	3776.820846855519	0	0	0	0	0	0	0	0	0	81.40939070324569
1.171456436600364	0	0	0	0	0	0	-306.5467587314053	3710.288793267069	0	0	0	0	0	0	0	0	0	73.4167748734462
1.174141891791517	0	0	0	0	0	0	-507.1134602753928	3628.588807203225	0	0	0	0	0	0	0	0	0	64.84537615605092
